<?xml version="1.0" standalone="no"?>
<!DOCTYPE svg PUBLIC "-//W3C//DTD SVG 20010904//EN"
 "http://www.w3.org/TR/2001/REC-SVG-20010904/DTD/svg10.dtd">
<svg version="1.0" xmlns="http://www.w3.org/2000/svg"
 width="320.000000pt" height="320.000000pt" viewBox="0 0 320.000000 320.000000"
 preserveAspectRatio="xMidYMid meet">

<g transform="translate(0.000000,320.000000) scale(0.100000,-0.100000)"
fill="#000000" stroke="none">
<path d="M1425 3159 c-185 -19 -368 -71 -534 -150 -150 -71 -262 -149 -372
-258 -225 -226 -343 -494 -364 -831 -15 -240 58 -562 196 -859 31 -67 39 -95
39 -141 0 -232 129 -381 354 -409 105 -13 115 -23 132 -141 23 -154 88 -249
214 -309 l55 -26 450 0 450 0 67 33 c119 58 193 170 205 307 10 110 28 125
165 143 94 12 159 42 219 102 62 62 90 137 97 260 4 83 10 105 49 193 232 525
252 981 58 1367 -243 482 -864 783 -1480 719z m405 -255 c120 -20 279 -72 395
-130 290 -147 475 -370 547 -661 32 -129 31 -340 0 -483 -30 -132 -108 -367
-163 -491 -39 -86 -43 -103 -48 -204 -9 -159 -19 -171 -157 -185 -188 -20
-302 -133 -323 -324 -10 -87 -29 -122 -76 -142 -52 -21 -783 -21 -825 1 -40
21 -56 56 -69 149 -26 185 -135 295 -316 316 -136 15 -156 39 -165 190 -5 88
-11 116 -37 175 -91 203 -164 437 -189 606 -35 239 26 518 155 707 184 272
514 451 906 492 98 10 239 4 365 -16z"/>
<path d="M889 1705 c-103 -33 -202 -130 -236 -230 -24 -71 -21 -175 7 -250 32
-83 122 -173 204 -204 214 -80 443 51 486 278 20 109 -30 255 -114 328 -91 79
-240 112 -347 78z"/>
<path d="M2088 1701 c-162 -53 -256 -192 -246 -365 6 -102 33 -162 108 -237
77 -77 148 -103 268 -97 125 6 208 52 276 151 127 188 56 439 -152 535 -75 34
-175 39 -254 13z"/>
<path d="M1525 949 c-90 -83 -165 -231 -165 -325 0 -56 12 -79 52 -100 57 -30
130 2 167 74 l18 36 18 -37 c47 -100 168 -113 211 -23 14 27 14 42 5 87 -30
144 -164 329 -238 329 -14 0 -42 -17 -68 -41z"/>
</g>
</svg>
